<?xml version="1.0" standalone="no"?>
<!DOCTYPE svg PUBLIC "-//W3C//DTD SVG 20010904//EN"
 "http://www.w3.org/TR/2001/REC-SVG-20010904/DTD/svg10.dtd">
<svg version="1.0" xmlns="http://www.w3.org/2000/svg"
 width="2137.000000pt" height="2370.000000pt" viewBox="0 0 2137.000000 2370.000000"
 preserveAspectRatio="xMidYMid meet">

<g transform="translate(0.000000,2370.000000) scale(0.100000,-0.100000)"
fill="#000000" stroke="none">
<path d="M0 22900 l0 -800 3165 0 c2180 0 3196 -3 3262 -11 376 -42 605 -234
676 -568 15 -72 20 -133 20 -246 0 -109 -212 -2778 -782 -9850 -740 -9167
-782 -9710 -778 -9875 12 -419 139 -744 392 -995 303 -302 758 -473 1425 -537
198 -18 766 -15 1020 6 1639 137 2985 690 3665 1506 237 285 388 600 455 948
15 76 243 2788 795 9432 426 5129 781 9366 790 9415 79 461 245 662 615 748
l95 21 3277 3 3278 3 0 800 0 800 -10685 0 -10685 0 0 -800z"/>
</g>
</svg>
